<?xml version="1.0" encoding="utf-8"?>
<!-- Generator: Adobe Illustrator 24.1.1, SVG Export Plug-In . SVG Version: 6.00 Build 0)  -->
<svg version="1.1" id="Layer_1" xmlns="http://www.w3.org/2000/svg" xmlns:xlink="http://www.w3.org/1999/xlink" x="0px" y="0px"
	 viewBox="0 0 144 360" style="enable-background:new 0 0 144 360;" xml:space="preserve">
<style type="text/css">
	.st0{fill:#D1D3D4;}
	.st1{font-family:'LucidaSans-Typewriter';}
	.st2{font-size:61.9374px;}
</style>
<g>
	<g>
		<path class="st0" d="M22.28,4.2c10.59,0,29.44,9.53,29.44,54.52c0,27.83-1.26,43.08-1.26,67.1c0,20.21,3.77,38.12,21.54,40.03
			v12.96c-17.59,2.67-21.54,16.01-21.54,40.41c0,24.78,1.26,45.75,1.26,70.15c0,45.37-18.49,56.81-29.44,57.19v-11.06
			c13.82-5.34,16.51-21.73,16.51-41.56c0-24.4-1.44-44.61-1.44-68.24c0-27.83,9.33-47.27,20.28-52.61v-1.52
			c-10.59-4.96-20.28-24.78-20.28-52.23c0-22.11,1.44-38.89,1.44-62.14c0-20.59-3.05-36.6-16.51-41.94V4.2z"/>
	</g>
</g>
<text transform="matrix(0.8677 0 0 1 81.561 194.0227)" class="st0 st1 st2">3</text>
</svg>
