<?xml version="1.0" encoding="utf-8"?>
<!-- Generator: Adobe Illustrator 24.1.1, SVG Export Plug-In . SVG Version: 6.00 Build 0)  -->
<svg version="1.1" xmlns="http://www.w3.org/2000/svg" xmlns:xlink="http://www.w3.org/1999/xlink" x="0px" y="0px"
	 viewBox="0 0 144 360" style="enable-background:new 0 0 144 360;" xml:space="preserve">
<style type="text/css">
	.st0{display:none;}
	.st1{display:inline;fill:#D1D3D4;stroke:#000000;stroke-width:2;stroke-miterlimit:10;}
	.st2{fill:#D1D3D4;}
	.st3{font-family:'LucidaSans-Typewriter';}
	.st4{font-size:61.9374px;}
</style>
<g id="Layer_2" class="st0">
	<path class="st1" d="M22,15.3c0,0,13,2,15.9,29.7c2.9,27.7,0,36.7,0,36.7l-0.8,23.5l0.4,25.2l1.1,7.9l1.4,6.3l1.7,5.6l1.6,4.3
		l1.7,3.8l2,3.6l3.2,4.3l3.4,3.4l3.4,2.2v1.5l-1.6,0.9l-2.7,2.1l-1.5,1.4l-1.5,1.7l-0.9,1.1l-0.9,1.2l-0.9,1.3l-1.1,1.9l-1,2
		l-0.7,1.5l-0.6,1.4l-0.8,2l-1,2.8l-0.4,1.1l-0.5,1.8l-0.7,2.6l-0.5,2l-0.4,1.9l-0.4,2.2l-0.3,1.8l-0.5,3.6l-0.2,2l-0.4,5L37,221
		l-0.1,3.6l0,5.1l0,4.4l0.3,13.6l0.3,10.4l0.2,6.4l0.2,6.5l0.2,7.4l0.1,6.1l0.1,6.3l0,6.3l-0.2,6.5l-0.2,3l-0.2,2.4l-0.3,2.5
		l-0.6,3.5l-0.7,2.9l-0.7,2.3l-0.6,1.8l-1,2.3l-0.9,1.8l-1,1.7l-0.9,1.2l-1.7,2l-2.2,1.9l-2,1.3l-1.4,0.7l-1.6,0.7l0,0l0,0"/>
</g>
<g id="Layer_1">
	<path class="st2" d="M50.3,125.5c0-24.2,1.3-39.5,1.3-67.5c0-45.2-19-54.8-29.6-54.8c0,0,0,12,0,12c13.3,5.3,16.3,21.4,16.3,41.9
		c0,23.3-1.4,40-1.4,62.1c0,27.5,9.6,47.3,20.1,52.2v1.5c-10.8,5.3-20.1,24.8-20.1,52.6c0,23.6,1.4,43.8,1.4,68.2
		c0,19.8-2.7,36.2-16.3,41.6v12c11-0.4,29.6-11.9,29.6-57.5c0-24.5-1.3-45.6-1.3-70.5c0-24.5,4-38,21.7-40.6v-13
		C54.1,163.9,50.3,145.9,50.3,125.5z"/>
	<text transform="matrix(0.8677 0 0 1 81.561 194.0226)" class="st2 st3 st4">3</text>
</g>
</svg>
